<?xml version="1.0" encoding="UTF-8" standalone="no"?><!DOCTYPE svg PUBLIC "-//W3C//DTD SVG 1.1//EN" "http://www.w3.org/Graphics/SVG/1.1/DTD/svg11.dtd"><svg width="100%" height="100%" viewBox="0 0 120 120" version="1.1" xmlns="http://www.w3.org/2000/svg" xmlns:xlink="http://www.w3.org/1999/xlink" xml:space="preserve" xmlns:serif="http://www.serif.com/" style="fill-rule:evenodd;clip-rule:evenodd;stroke-linejoin:round;stroke-miterlimit:2;"><circle cx="60" cy="60" r="36.605" style="fill:url(#_Radial1);"/><path d="M0,7.624l0,-7.624l10.123,0l49.877,60l-60,-52.376Zm112.376,-7.624l7.624,-0l0,10.123l-60,49.877l52.376,-60Zm7.624,112.376l0,7.624l-10.123,0l-49.877,-60l60,52.376Zm-112.376,7.624l-7.624,0l0,-10.123l60,-49.877l-52.376,60Zm-7.624,-65.528l60,5.528l-60,4.071l0,-9.599Zm60,5.528l-4.071,-60l9.599,0l-5.528,60Zm0,0l60,-4.071l0,9.599l-60,-5.528Zm0,0l4.071,60l-9.599,0l5.528,-60Z" style="fill:url(#_Radial2);"/><defs><radialGradient id="_Radial1" cx="0" cy="0" r="1" gradientUnits="userSpaceOnUse" gradientTransform="matrix(36.6046,0,0,36.6046,60,60)"><stop offset="0" style="stop-color:#fff;stop-opacity:1"/><stop offset="0.86" style="stop-color:#efecdf;stop-opacity:0.4"/><stop offset="1" style="stop-color:#fff;stop-opacity:0"/></radialGradient><radialGradient id="_Radial2" cx="0" cy="0" r="1" gradientUnits="userSpaceOnUse" gradientTransform="matrix(60,0,0,60,60,60)"><stop offset="0" style="stop-color:#fff;stop-opacity:1"/><stop offset="0.66" style="stop-color:#fff;stop-opacity:0.9"/><stop offset="1" style="stop-color:#fff;stop-opacity:0.31"/></radialGradient></defs></svg>